<?xml version="1.0" encoding="utf-8" standalone="no"?>
<!DOCTYPE svg PUBLIC "-//W3C//DTD SVG 1.1//EN"
  "http://www.w3.org/Graphics/SVG/1.1/DTD/svg11.dtd">
<svg height="432pt" version="1.1" viewBox="0 0 720 432" width="720pt" xmlns="http://www.w3.org/2000/svg" xmlns:xlink="http://www.w3.org/1999/xlink">
 <metadata>
  <rdf:RDF xmlns:cc="http://creativecommons.org/ns#" xmlns:dc="http://purl.org/dc/elements/1.1/" xmlns:rdf="http://www.w3.org/1999/02/22-rdf-syntax-ns#">
   <cc:Work>
    <dc:type rdf:resource="http://purl.org/dc/dcmitype/StillImage"/>
    <dc:date>2023-10-30T19:50:30.428303</dc:date>
    <dc:format>image/svg+xml</dc:format>
    <dc:creator>
     <cc:Agent>
      <dc:title>Matplotlib v3.4.3, https://matplotlib.org/</dc:title>
     </cc:Agent>
    </dc:creator>
   </cc:Work>
  </rdf:RDF>
 </metadata>
 <defs>
  <style type="text/css">*{stroke-linecap:butt;stroke-linejoin:round;}</style>
 </defs>
 <g id="figure_1">
  <g id="patch_1">
   <path d="M 0 432 
L 720 432 
L 720 0 
L 0 0 
z
" style="fill:#ffffff;"/>
  </g>
  <g id="axes_1">
   <g id="patch_2">
    <path d="M 90 384.48 
L 648 384.48 
L 648 51.84 
L 90 51.84 
z
" style="fill:#ffffff;"/>
   </g>
   <g id="PolyCollection_1">
    <defs>
     <path d="M 115.363636 -62.64 
L 115.363636 -310.447875 
L 119.626432 -92.499274 
L 123.889228 -329.345484 
L 128.152024 -114.749578 
L 132.41482 -237.483397 
L 136.677617 -255.443349 
L 140.940413 -327.504167 
L 145.203209 -186.52345 
L 149.466005 -97.902974 
L 153.728801 -288.652479 
L 157.991597 -284.877243 
L 162.254393 -232.068681 
L 166.517189 -256.416639 
L 170.779985 -182.585583 
L 175.042781 -201.900445 
L 179.305577 -187.494358 
L 183.568373 -208.76708 
L 187.831169 -328.790717 
L 192.093965 -287.496348 
L 196.356761 -231.403134 
L 200.619557 -120.374686 
L 204.882353 -160.283127 
L 209.145149 -141.21445 
L 213.407945 -194.692945 
L 217.670741 -206.217217 
L 221.933537 -247.434425 
L 226.196333 -87.012361 
L 230.459129 -335.184613 
L 234.721925 -90.652174 
L 238.984721 -130.516195 
L 243.247517 -153.818433 
L 247.510313 -259.03416 
L 251.773109 -218.957948 
L 256.035905 -136.383722 
L 260.298701 -79.754524 
L 264.561497 -341.647439 
L 268.824293 -200.760043 
L 273.087089 -300.458452 
L 277.349885 -172.891942 
L 281.612681 -362.297742 
L 285.875477 -356.656095 
L 290.138273 -321.400971 
L 294.40107 -158.860591 
L 298.663866 -127.765756 
L 302.926662 -131.621649 
L 307.189458 -236.868954 
L 311.452254 -80.91187 
L 315.71505 -94.158079 
L 319.977846 -251.731118 
L 324.240642 -286.152921 
L 328.503438 -272.69617 
L 332.766234 -245.701437 
L 337.02903 -148.976843 
L 341.291826 -205.551023 
L 345.554622 -118.846844 
L 349.817418 -156.558583 
L 354.080214 -126.049973 
L 358.34301 -347.917928 
L 362.605806 -98.847305 
L 366.868602 -71.526712 
L 371.131398 -94.599164 
L 375.394194 -338.882963 
L 379.65699 -87.449381 
L 383.919786 -167.992621 
L 388.182582 -86.54602 
L 392.445378 -72.523797 
L 396.708174 -261.614442 
L 400.97097 -100.324596 
L 405.233766 -282.509249 
L 409.496562 -304.883297 
L 413.759358 -161.561067 
L 418.022154 -332.301401 
L 422.28495 -145.958154 
L 426.547746 -82.211511 
L 430.810542 -318.260954 
L 435.073338 -178.329872 
L 439.336134 -83.447105 
L 443.59893 -230.684245 
L 447.861727 -141.259972 
L 452.124523 -307.042267 
L 456.387319 -299.439259 
L 460.650115 -97.612859 
L 464.912911 -306.457153 
L 469.175707 -96.060818 
L 473.438503 -351.609943 
L 477.701299 -94.187314 
L 481.964095 -202.022953 
L 486.226891 -256.891466 
L 490.489687 -211.049812 
L 494.752483 -331.992271 
L 499.015279 -207.226649 
L 503.278075 -322.826814 
L 507.540871 -100.830038 
L 511.803667 -250.640393 
L 516.066463 -314.442288 
L 520.329259 -354.999972 
L 524.592055 -365.04 
L 528.854851 -76.01088 
L 533.117647 -294.235079 
L 537.380443 -236.543603 
L 541.643239 -208.397229 
L 545.906035 -242.538411 
L 550.168831 -80.888234 
L 554.431627 -185.450821 
L 558.694423 -361.929206 
L 562.957219 -184.054538 
L 567.220015 -122.389094 
L 571.482811 -185.477081 
L 575.745607 -143.813095 
L 580.008403 -285.925297 
L 584.271199 -230.538206 
L 588.533995 -73.473046 
L 592.796791 -139.333556 
L 597.059587 -211.113339 
L 601.322383 -262.685475 
L 605.58518 -232.806974 
L 609.847976 -243.810072 
L 614.110772 -182.487078 
L 618.373568 -62.64 
L 622.636364 -321.458363 
L 622.636364 -62.64 
L 622.636364 -62.64 
L 618.373568 -62.64 
L 614.110772 -62.64 
L 609.847976 -62.64 
L 605.58518 -62.64 
L 601.322383 -62.64 
L 597.059587 -62.64 
L 592.796791 -62.64 
L 588.533995 -62.64 
L 584.271199 -62.64 
L 580.008403 -62.64 
L 575.745607 -62.64 
L 571.482811 -62.64 
L 567.220015 -62.64 
L 562.957219 -62.64 
L 558.694423 -62.64 
L 554.431627 -62.64 
L 550.168831 -62.64 
L 545.906035 -62.64 
L 541.643239 -62.64 
L 537.380443 -62.64 
L 533.117647 -62.64 
L 528.854851 -62.64 
L 524.592055 -62.64 
L 520.329259 -62.64 
L 516.066463 -62.64 
L 511.803667 -62.64 
L 507.540871 -62.64 
L 503.278075 -62.64 
L 499.015279 -62.64 
L 494.752483 -62.64 
L 490.489687 -62.64 
L 486.226891 -62.64 
L 481.964095 -62.64 
L 477.701299 -62.64 
L 473.438503 -62.64 
L 469.175707 -62.64 
L 464.912911 -62.64 
L 460.650115 -62.64 
L 456.387319 -62.64 
L 452.124523 -62.64 
L 447.861727 -62.64 
L 443.59893 -62.64 
L 439.336134 -62.64 
L 435.073338 -62.64 
L 430.810542 -62.64 
L 426.547746 -62.64 
L 422.28495 -62.64 
L 418.022154 -62.64 
L 413.759358 -62.64 
L 409.496562 -62.64 
L 405.233766 -62.64 
L 400.97097 -62.64 
L 396.708174 -62.64 
L 392.445378 -62.64 
L 388.182582 -62.64 
L 383.919786 -62.64 
L 379.65699 -62.64 
L 375.394194 -62.64 
L 371.131398 -62.64 
L 366.868602 -62.64 
L 362.605806 -62.64 
L 358.34301 -62.64 
L 354.080214 -62.64 
L 349.817418 -62.64 
L 345.554622 -62.64 
L 341.291826 -62.64 
L 337.02903 -62.64 
L 332.766234 -62.64 
L 328.503438 -62.64 
L 324.240642 -62.64 
L 319.977846 -62.64 
L 315.71505 -62.64 
L 311.452254 -62.64 
L 307.189458 -62.64 
L 302.926662 -62.64 
L 298.663866 -62.64 
L 294.40107 -62.64 
L 290.138273 -62.64 
L 285.875477 -62.64 
L 281.612681 -62.64 
L 277.349885 -62.64 
L 273.087089 -62.64 
L 268.824293 -62.64 
L 264.561497 -62.64 
L 260.298701 -62.64 
L 256.035905 -62.64 
L 251.773109 -62.64 
L 247.510313 -62.64 
L 243.247517 -62.64 
L 238.984721 -62.64 
L 234.721925 -62.64 
L 230.459129 -62.64 
L 226.196333 -62.64 
L 221.933537 -62.64 
L 217.670741 -62.64 
L 213.407945 -62.64 
L 209.145149 -62.64 
L 204.882353 -62.64 
L 200.619557 -62.64 
L 196.356761 -62.64 
L 192.093965 -62.64 
L 187.831169 -62.64 
L 183.568373 -62.64 
L 179.305577 -62.64 
L 175.042781 -62.64 
L 170.779985 -62.64 
L 166.517189 -62.64 
L 162.254393 -62.64 
L 157.991597 -62.64 
L 153.728801 -62.64 
L 149.466005 -62.64 
L 145.203209 -62.64 
L 140.940413 -62.64 
L 136.677617 -62.64 
L 132.41482 -62.64 
L 128.152024 -62.64 
L 123.889228 -62.64 
L 119.626432 -62.64 
L 115.363636 -62.64 
z
" id="m9a760a4dbf" style="stroke:#1786bf;stroke-opacity:0.5;"/>
    </defs>
    <g clip-path="url(#p344379813c)">
     <use style="fill:#1786bf;fill-opacity:0.5;stroke:#1786bf;stroke-opacity:0.5;" x="0" xlink:href="#m9a760a4dbf" y="432"/>
    </g>
   </g>
   <g id="PolyCollection_2">
    <defs>
     <path d="M 115.363636 -62.64 
L 115.363636 -183.710806 
L 119.626432 -183.710806 
L 123.889228 -183.710806 
L 128.152024 -183.710806 
L 132.41482 -183.710806 
L 136.677617 -183.710806 
L 140.940413 -183.710806 
L 145.203209 -183.710806 
L 149.466005 -183.710806 
L 153.728801 -183.710806 
L 157.991597 -183.710806 
L 162.254393 -183.710806 
L 166.517189 -183.710806 
L 170.779985 -183.710806 
L 175.042781 -183.710806 
L 179.305577 -183.710806 
L 183.568373 -183.710806 
L 187.831169 -183.710806 
L 192.093965 -183.710806 
L 196.356761 -183.710806 
L 200.619557 -183.710806 
L 204.882353 -183.710806 
L 209.145149 -183.710806 
L 213.407945 -183.710806 
L 217.670741 -183.710806 
L 221.933537 -183.710806 
L 226.196333 -183.710806 
L 230.459129 -183.710806 
L 234.721925 -183.710806 
L 238.984721 -183.710806 
L 243.247517 -183.710806 
L 247.510313 -183.710806 
L 251.773109 -183.710806 
L 256.035905 -183.710806 
L 260.298701 -183.710806 
L 264.561497 -183.710806 
L 268.824293 -183.710806 
L 273.087089 -183.710806 
L 277.349885 -183.710806 
L 281.612681 -183.710806 
L 285.875477 -183.710806 
L 290.138273 -183.710806 
L 294.40107 -183.710806 
L 298.663866 -183.710806 
L 302.926662 -183.710806 
L 307.189458 -183.710806 
L 311.452254 -183.710806 
L 315.71505 -183.710806 
L 319.977846 -183.710806 
L 324.240642 -183.710806 
L 328.503438 -183.710806 
L 332.766234 -183.710806 
L 337.02903 -183.710806 
L 341.291826 -183.710806 
L 345.554622 -183.710806 
L 349.817418 -183.710806 
L 354.080214 -183.710806 
L 358.34301 -183.710806 
L 362.605806 -183.710806 
L 366.868602 -183.710806 
L 371.131398 -183.710806 
L 375.394194 -183.710806 
L 379.65699 -183.710806 
L 383.919786 -183.710806 
L 388.182582 -183.710806 
L 392.445378 -183.710806 
L 396.708174 -183.710806 
L 400.97097 -183.710806 
L 405.233766 -183.710806 
L 409.496562 -183.710806 
L 413.759358 -183.710806 
L 418.022154 -183.710806 
L 422.28495 -183.710806 
L 426.547746 -183.710806 
L 430.810542 -183.710806 
L 435.073338 -183.710806 
L 439.336134 -183.710806 
L 443.59893 -183.710806 
L 447.861727 -183.710806 
L 452.124523 -183.710806 
L 456.387319 -183.710806 
L 460.650115 -183.710806 
L 464.912911 -183.710806 
L 469.175707 -183.710806 
L 473.438503 -183.710806 
L 477.701299 -183.710806 
L 481.964095 -183.710806 
L 486.226891 -183.710806 
L 490.489687 -183.710806 
L 494.752483 -183.710806 
L 499.015279 -183.710806 
L 503.278075 -183.710806 
L 507.540871 -183.710806 
L 511.803667 -183.710806 
L 516.066463 -183.710806 
L 520.329259 -183.710806 
L 524.592055 -183.710806 
L 528.854851 -183.710806 
L 533.117647 -183.710806 
L 537.380443 -183.710806 
L 541.643239 -183.710806 
L 545.906035 -183.710806 
L 550.168831 -183.710806 
L 554.431627 -183.710806 
L 558.694423 -183.710806 
L 562.957219 -183.710806 
L 567.220015 -183.710806 
L 571.482811 -183.710806 
L 575.745607 -183.710806 
L 580.008403 -183.710806 
L 584.271199 -183.710806 
L 588.533995 -183.710806 
L 592.796791 -183.710806 
L 597.059587 -183.710806 
L 601.322383 -183.710806 
L 605.58518 -183.710806 
L 609.847976 -183.710806 
L 614.110772 -183.710806 
L 618.373568 -183.710806 
L 622.636364 -183.710806 
L 622.636364 -62.64 
L 622.636364 -62.64 
L 618.373568 -62.64 
L 614.110772 -62.64 
L 609.847976 -62.64 
L 605.58518 -62.64 
L 601.322383 -62.64 
L 597.059587 -62.64 
L 592.796791 -62.64 
L 588.533995 -62.64 
L 584.271199 -62.64 
L 580.008403 -62.64 
L 575.745607 -62.64 
L 571.482811 -62.64 
L 567.220015 -62.64 
L 562.957219 -62.64 
L 558.694423 -62.64 
L 554.431627 -62.64 
L 550.168831 -62.64 
L 545.906035 -62.64 
L 541.643239 -62.64 
L 537.380443 -62.64 
L 533.117647 -62.64 
L 528.854851 -62.64 
L 524.592055 -62.64 
L 520.329259 -62.64 
L 516.066463 -62.64 
L 511.803667 -62.64 
L 507.540871 -62.64 
L 503.278075 -62.64 
L 499.015279 -62.64 
L 494.752483 -62.64 
L 490.489687 -62.64 
L 486.226891 -62.64 
L 481.964095 -62.64 
L 477.701299 -62.64 
L 473.438503 -62.64 
L 469.175707 -62.64 
L 464.912911 -62.64 
L 460.650115 -62.64 
L 456.387319 -62.64 
L 452.124523 -62.64 
L 447.861727 -62.64 
L 443.59893 -62.64 
L 439.336134 -62.64 
L 435.073338 -62.64 
L 430.810542 -62.64 
L 426.547746 -62.64 
L 422.28495 -62.64 
L 418.022154 -62.64 
L 413.759358 -62.64 
L 409.496562 -62.64 
L 405.233766 -62.64 
L 400.97097 -62.64 
L 396.708174 -62.64 
L 392.445378 -62.64 
L 388.182582 -62.64 
L 383.919786 -62.64 
L 379.65699 -62.64 
L 375.394194 -62.64 
L 371.131398 -62.64 
L 366.868602 -62.64 
L 362.605806 -62.64 
L 358.34301 -62.64 
L 354.080214 -62.64 
L 349.817418 -62.64 
L 345.554622 -62.64 
L 341.291826 -62.64 
L 337.02903 -62.64 
L 332.766234 -62.64 
L 328.503438 -62.64 
L 324.240642 -62.64 
L 319.977846 -62.64 
L 315.71505 -62.64 
L 311.452254 -62.64 
L 307.189458 -62.64 
L 302.926662 -62.64 
L 298.663866 -62.64 
L 294.40107 -62.64 
L 290.138273 -62.64 
L 285.875477 -62.64 
L 281.612681 -62.64 
L 277.349885 -62.64 
L 273.087089 -62.64 
L 268.824293 -62.64 
L 264.561497 -62.64 
L 260.298701 -62.64 
L 256.035905 -62.64 
L 251.773109 -62.64 
L 247.510313 -62.64 
L 243.247517 -62.64 
L 238.984721 -62.64 
L 234.721925 -62.64 
L 230.459129 -62.64 
L 226.196333 -62.64 
L 221.933537 -62.64 
L 217.670741 -62.64 
L 213.407945 -62.64 
L 209.145149 -62.64 
L 204.882353 -62.64 
L 200.619557 -62.64 
L 196.356761 -62.64 
L 192.093965 -62.64 
L 187.831169 -62.64 
L 183.568373 -62.64 
L 179.305577 -62.64 
L 175.042781 -62.64 
L 170.779985 -62.64 
L 166.517189 -62.64 
L 162.254393 -62.64 
L 157.991597 -62.64 
L 153.728801 -62.64 
L 149.466005 -62.64 
L 145.203209 -62.64 
L 140.940413 -62.64 
L 136.677617 -62.64 
L 132.41482 -62.64 
L 128.152024 -62.64 
L 123.889228 -62.64 
L 119.626432 -62.64 
L 115.363636 -62.64 
z
" id="me1a467f995" style="stroke:#f2c43d;stroke-opacity:0.5;"/>
    </defs>
    <g clip-path="url(#p344379813c)">
     <use style="fill:#f2c43d;fill-opacity:0.5;stroke:#f2c43d;stroke-opacity:0.5;" x="0" xlink:href="#me1a467f995" y="432"/>
    </g>
   </g>
   <g id="matplotlib.axis_1">
    <g id="xtick_1">
     <g id="line2d_1">
      <defs>
       <path d="M 0 0 
L 0 3.5 
" id="mf97af3afad" style="stroke:#000000;stroke-width:0.8;"/>
      </defs>
      <g>
       <use style="stroke:#000000;stroke-width:0.8;" x="115.363636" xlink:href="#mf97af3afad" y="384.48"/>
      </g>
     </g>
     <g id="text_1">
      <!-- 0 -->
      <g transform="translate(105.819886 414.275312)scale(0.3 -0.3)">
       <defs>
        <path d="M 2034 4250 
Q 1547 4250 1301 3770 
Q 1056 3291 1056 2328 
Q 1056 1369 1301 889 
Q 1547 409 2034 409 
Q 2525 409 2770 889 
Q 3016 1369 3016 2328 
Q 3016 3291 2770 3770 
Q 2525 4250 2034 4250 
z
M 2034 4750 
Q 2819 4750 3233 4129 
Q 3647 3509 3647 2328 
Q 3647 1150 3233 529 
Q 2819 -91 2034 -91 
Q 1250 -91 836 529 
Q 422 1150 422 2328 
Q 422 3509 836 4129 
Q 1250 4750 2034 4750 
z
" id="DejaVuSans-30" transform="scale(0.015625)"/>
       </defs>
       <use xlink:href="#DejaVuSans-30"/>
      </g>
     </g>
    </g>
    <g id="xtick_2">
     <g id="line2d_2">
      <g>
       <use style="stroke:#000000;stroke-width:0.8;" x="221.933537" xlink:href="#mf97af3afad" y="384.48"/>
      </g>
     </g>
     <g id="text_2">
      <!-- 25 -->
      <g transform="translate(202.846037 414.275312)scale(0.3 -0.3)">
       <defs>
        <path d="M 1228 531 
L 3431 531 
L 3431 0 
L 469 0 
L 469 531 
Q 828 903 1448 1529 
Q 2069 2156 2228 2338 
Q 2531 2678 2651 2914 
Q 2772 3150 2772 3378 
Q 2772 3750 2511 3984 
Q 2250 4219 1831 4219 
Q 1534 4219 1204 4116 
Q 875 4013 500 3803 
L 500 4441 
Q 881 4594 1212 4672 
Q 1544 4750 1819 4750 
Q 2544 4750 2975 4387 
Q 3406 4025 3406 3419 
Q 3406 3131 3298 2873 
Q 3191 2616 2906 2266 
Q 2828 2175 2409 1742 
Q 1991 1309 1228 531 
z
" id="DejaVuSans-32" transform="scale(0.015625)"/>
        <path d="M 691 4666 
L 3169 4666 
L 3169 4134 
L 1269 4134 
L 1269 2991 
Q 1406 3038 1543 3061 
Q 1681 3084 1819 3084 
Q 2600 3084 3056 2656 
Q 3513 2228 3513 1497 
Q 3513 744 3044 326 
Q 2575 -91 1722 -91 
Q 1428 -91 1123 -41 
Q 819 9 494 109 
L 494 744 
Q 775 591 1075 516 
Q 1375 441 1709 441 
Q 2250 441 2565 725 
Q 2881 1009 2881 1497 
Q 2881 1984 2565 2268 
Q 2250 2553 1709 2553 
Q 1456 2553 1204 2497 
Q 953 2441 691 2322 
L 691 4666 
z
" id="DejaVuSans-35" transform="scale(0.015625)"/>
       </defs>
       <use xlink:href="#DejaVuSans-32"/>
       <use x="63.623047" xlink:href="#DejaVuSans-35"/>
      </g>
     </g>
    </g>
    <g id="xtick_3">
     <g id="line2d_3">
      <g>
       <use style="stroke:#000000;stroke-width:0.8;" x="328.503438" xlink:href="#mf97af3afad" y="384.48"/>
      </g>
     </g>
     <g id="text_3">
      <!-- 50 -->
      <g transform="translate(309.415938 414.275312)scale(0.3 -0.3)">
       <use xlink:href="#DejaVuSans-35"/>
       <use x="63.623047" xlink:href="#DejaVuSans-30"/>
      </g>
     </g>
    </g>
    <g id="xtick_4">
     <g id="line2d_4">
      <g>
       <use style="stroke:#000000;stroke-width:0.8;" x="435.073338" xlink:href="#mf97af3afad" y="384.48"/>
      </g>
     </g>
     <g id="text_4">
      <!-- 75 -->
      <g transform="translate(415.985838 414.275312)scale(0.3 -0.3)">
       <defs>
        <path d="M 525 4666 
L 3525 4666 
L 3525 4397 
L 1831 0 
L 1172 0 
L 2766 4134 
L 525 4134 
L 525 4666 
z
" id="DejaVuSans-37" transform="scale(0.015625)"/>
       </defs>
       <use xlink:href="#DejaVuSans-37"/>
       <use x="63.623047" xlink:href="#DejaVuSans-35"/>
      </g>
     </g>
    </g>
    <g id="xtick_5">
     <g id="line2d_5">
      <g>
       <use style="stroke:#000000;stroke-width:0.8;" x="541.643239" xlink:href="#mf97af3afad" y="384.48"/>
      </g>
     </g>
     <g id="text_5">
      <!-- 100 -->
      <g transform="translate(513.011989 414.275312)scale(0.3 -0.3)">
       <defs>
        <path d="M 794 531 
L 1825 531 
L 1825 4091 
L 703 3866 
L 703 4441 
L 1819 4666 
L 2450 4666 
L 2450 531 
L 3481 531 
L 3481 0 
L 794 0 
L 794 531 
z
" id="DejaVuSans-31" transform="scale(0.015625)"/>
       </defs>
       <use xlink:href="#DejaVuSans-31"/>
       <use x="63.623047" xlink:href="#DejaVuSans-30"/>
       <use x="127.246094" xlink:href="#DejaVuSans-30"/>
      </g>
     </g>
    </g>
    <g id="text_6">
     <!-- Epoch -->
     <g transform="translate(323.067187 447.309687)scale(0.3 -0.3)">
      <defs>
       <path d="M 628 4666 
L 3578 4666 
L 3578 4134 
L 1259 4134 
L 1259 2753 
L 3481 2753 
L 3481 2222 
L 1259 2222 
L 1259 531 
L 3634 531 
L 3634 0 
L 628 0 
L 628 4666 
z
" id="DejaVuSans-45" transform="scale(0.015625)"/>
       <path d="M 1159 525 
L 1159 -1331 
L 581 -1331 
L 581 3500 
L 1159 3500 
L 1159 2969 
Q 1341 3281 1617 3432 
Q 1894 3584 2278 3584 
Q 2916 3584 3314 3078 
Q 3713 2572 3713 1747 
Q 3713 922 3314 415 
Q 2916 -91 2278 -91 
Q 1894 -91 1617 61 
Q 1341 213 1159 525 
z
M 3116 1747 
Q 3116 2381 2855 2742 
Q 2594 3103 2138 3103 
Q 1681 3103 1420 2742 
Q 1159 2381 1159 1747 
Q 1159 1113 1420 752 
Q 1681 391 2138 391 
Q 2594 391 2855 752 
Q 3116 1113 3116 1747 
z
" id="DejaVuSans-70" transform="scale(0.015625)"/>
       <path d="M 1959 3097 
Q 1497 3097 1228 2736 
Q 959 2375 959 1747 
Q 959 1119 1226 758 
Q 1494 397 1959 397 
Q 2419 397 2687 759 
Q 2956 1122 2956 1747 
Q 2956 2369 2687 2733 
Q 2419 3097 1959 3097 
z
M 1959 3584 
Q 2709 3584 3137 3096 
Q 3566 2609 3566 1747 
Q 3566 888 3137 398 
Q 2709 -91 1959 -91 
Q 1206 -91 779 398 
Q 353 888 353 1747 
Q 353 2609 779 3096 
Q 1206 3584 1959 3584 
z
" id="DejaVuSans-6f" transform="scale(0.015625)"/>
       <path d="M 3122 3366 
L 3122 2828 
Q 2878 2963 2633 3030 
Q 2388 3097 2138 3097 
Q 1578 3097 1268 2742 
Q 959 2388 959 1747 
Q 959 1106 1268 751 
Q 1578 397 2138 397 
Q 2388 397 2633 464 
Q 2878 531 3122 666 
L 3122 134 
Q 2881 22 2623 -34 
Q 2366 -91 2075 -91 
Q 1284 -91 818 406 
Q 353 903 353 1747 
Q 353 2603 823 3093 
Q 1294 3584 2113 3584 
Q 2378 3584 2631 3529 
Q 2884 3475 3122 3366 
z
" id="DejaVuSans-63" transform="scale(0.015625)"/>
       <path d="M 3513 2113 
L 3513 0 
L 2938 0 
L 2938 2094 
Q 2938 2591 2744 2837 
Q 2550 3084 2163 3084 
Q 1697 3084 1428 2787 
Q 1159 2491 1159 1978 
L 1159 0 
L 581 0 
L 581 4863 
L 1159 4863 
L 1159 2956 
Q 1366 3272 1645 3428 
Q 1925 3584 2291 3584 
Q 2894 3584 3203 3211 
Q 3513 2838 3513 2113 
z
" id="DejaVuSans-68" transform="scale(0.015625)"/>
      </defs>
      <use xlink:href="#DejaVuSans-45"/>
      <use x="63.183594" xlink:href="#DejaVuSans-70"/>
      <use x="126.660156" xlink:href="#DejaVuSans-6f"/>
      <use x="187.841797" xlink:href="#DejaVuSans-63"/>
      <use x="242.822266" xlink:href="#DejaVuSans-68"/>
     </g>
    </g>
   </g>
   <g id="matplotlib.axis_2">
    <g id="ytick_1">
     <g id="line2d_6">
      <defs>
       <path d="M 0 0 
L -3.5 0 
" id="m44708d1340" style="stroke:#000000;stroke-width:0.8;"/>
      </defs>
      <g>
       <use style="stroke:#000000;stroke-width:0.8;" x="90" xlink:href="#m44708d1340" y="325.047868"/>
      </g>
     </g>
     <g id="text_7">
      <!-- 72.75 -->
      <g transform="translate(-2.884375 336.445524)scale(0.3 -0.3)">
       <defs>
        <path d="M 684 794 
L 1344 794 
L 1344 0 
L 684 0 
L 684 794 
z
" id="DejaVuSans-2e" transform="scale(0.015625)"/>
       </defs>
       <use xlink:href="#DejaVuSans-37"/>
       <use x="63.623047" xlink:href="#DejaVuSans-32"/>
       <use x="127.246094" xlink:href="#DejaVuSans-2e"/>
       <use x="159.033203" xlink:href="#DejaVuSans-37"/>
       <use x="222.65625" xlink:href="#DejaVuSans-35"/>
      </g>
     </g>
    </g>
    <g id="ytick_2">
     <g id="line2d_7">
      <g>
       <use style="stroke:#000000;stroke-width:0.8;" x="90" xlink:href="#m44708d1340" y="248.289194"/>
      </g>
     </g>
     <g id="text_8">
      <!-- 73.00 -->
      <g transform="translate(-2.884375 259.68685)scale(0.3 -0.3)">
       <defs>
        <path d="M 2597 2516 
Q 3050 2419 3304 2112 
Q 3559 1806 3559 1356 
Q 3559 666 3084 287 
Q 2609 -91 1734 -91 
Q 1441 -91 1130 -33 
Q 819 25 488 141 
L 488 750 
Q 750 597 1062 519 
Q 1375 441 1716 441 
Q 2309 441 2620 675 
Q 2931 909 2931 1356 
Q 2931 1769 2642 2001 
Q 2353 2234 1838 2234 
L 1294 2234 
L 1294 2753 
L 1863 2753 
Q 2328 2753 2575 2939 
Q 2822 3125 2822 3475 
Q 2822 3834 2567 4026 
Q 2313 4219 1838 4219 
Q 1578 4219 1281 4162 
Q 984 4106 628 3988 
L 628 4550 
Q 988 4650 1302 4700 
Q 1616 4750 1894 4750 
Q 2613 4750 3031 4423 
Q 3450 4097 3450 3541 
Q 3450 3153 3228 2886 
Q 3006 2619 2597 2516 
z
" id="DejaVuSans-33" transform="scale(0.015625)"/>
       </defs>
       <use xlink:href="#DejaVuSans-37"/>
       <use x="63.623047" xlink:href="#DejaVuSans-33"/>
       <use x="127.246094" xlink:href="#DejaVuSans-2e"/>
       <use x="159.033203" xlink:href="#DejaVuSans-30"/>
       <use x="222.65625" xlink:href="#DejaVuSans-30"/>
      </g>
     </g>
    </g>
    <g id="ytick_3">
     <g id="line2d_8">
      <g>
       <use style="stroke:#000000;stroke-width:0.8;" x="90" xlink:href="#m44708d1340" y="171.530519"/>
      </g>
     </g>
     <g id="text_9">
      <!-- 73.25 -->
      <g transform="translate(-2.884375 182.928175)scale(0.3 -0.3)">
       <use xlink:href="#DejaVuSans-37"/>
       <use x="63.623047" xlink:href="#DejaVuSans-33"/>
       <use x="127.246094" xlink:href="#DejaVuSans-2e"/>
       <use x="159.033203" xlink:href="#DejaVuSans-32"/>
       <use x="222.65625" xlink:href="#DejaVuSans-35"/>
      </g>
     </g>
    </g>
    <g id="ytick_4">
     <g id="line2d_9">
      <g>
       <use style="stroke:#000000;stroke-width:0.8;" x="90" xlink:href="#m44708d1340" y="94.771844"/>
      </g>
     </g>
     <g id="text_10">
      <!-- 73.50 -->
      <g transform="translate(-2.884375 106.1695)scale(0.3 -0.3)">
       <use xlink:href="#DejaVuSans-37"/>
       <use x="63.623047" xlink:href="#DejaVuSans-33"/>
       <use x="127.246094" xlink:href="#DejaVuSans-2e"/>
       <use x="159.033203" xlink:href="#DejaVuSans-35"/>
       <use x="222.65625" xlink:href="#DejaVuSans-30"/>
      </g>
     </g>
    </g>
    <g id="text_11">
     <!-- Accuracy -->
     <g transform="translate(-13.123437 286.644375)rotate(-90)scale(0.3 -0.3)">
      <defs>
       <path d="M 2188 4044 
L 1331 1722 
L 3047 1722 
L 2188 4044 
z
M 1831 4666 
L 2547 4666 
L 4325 0 
L 3669 0 
L 3244 1197 
L 1141 1197 
L 716 0 
L 50 0 
L 1831 4666 
z
" id="DejaVuSans-41" transform="scale(0.015625)"/>
       <path d="M 544 1381 
L 544 3500 
L 1119 3500 
L 1119 1403 
Q 1119 906 1312 657 
Q 1506 409 1894 409 
Q 2359 409 2629 706 
Q 2900 1003 2900 1516 
L 2900 3500 
L 3475 3500 
L 3475 0 
L 2900 0 
L 2900 538 
Q 2691 219 2414 64 
Q 2138 -91 1772 -91 
Q 1169 -91 856 284 
Q 544 659 544 1381 
z
M 1991 3584 
L 1991 3584 
z
" id="DejaVuSans-75" transform="scale(0.015625)"/>
       <path d="M 2631 2963 
Q 2534 3019 2420 3045 
Q 2306 3072 2169 3072 
Q 1681 3072 1420 2755 
Q 1159 2438 1159 1844 
L 1159 0 
L 581 0 
L 581 3500 
L 1159 3500 
L 1159 2956 
Q 1341 3275 1631 3429 
Q 1922 3584 2338 3584 
Q 2397 3584 2469 3576 
Q 2541 3569 2628 3553 
L 2631 2963 
z
" id="DejaVuSans-72" transform="scale(0.015625)"/>
       <path d="M 2194 1759 
Q 1497 1759 1228 1600 
Q 959 1441 959 1056 
Q 959 750 1161 570 
Q 1363 391 1709 391 
Q 2188 391 2477 730 
Q 2766 1069 2766 1631 
L 2766 1759 
L 2194 1759 
z
M 3341 1997 
L 3341 0 
L 2766 0 
L 2766 531 
Q 2569 213 2275 61 
Q 1981 -91 1556 -91 
Q 1019 -91 701 211 
Q 384 513 384 1019 
Q 384 1609 779 1909 
Q 1175 2209 1959 2209 
L 2766 2209 
L 2766 2266 
Q 2766 2663 2505 2880 
Q 2244 3097 1772 3097 
Q 1472 3097 1187 3025 
Q 903 2953 641 2809 
L 641 3341 
Q 956 3463 1253 3523 
Q 1550 3584 1831 3584 
Q 2591 3584 2966 3190 
Q 3341 2797 3341 1997 
z
" id="DejaVuSans-61" transform="scale(0.015625)"/>
       <path d="M 2059 -325 
Q 1816 -950 1584 -1140 
Q 1353 -1331 966 -1331 
L 506 -1331 
L 506 -850 
L 844 -850 
Q 1081 -850 1212 -737 
Q 1344 -625 1503 -206 
L 1606 56 
L 191 3500 
L 800 3500 
L 1894 763 
L 2988 3500 
L 3597 3500 
L 2059 -325 
z
" id="DejaVuSans-79" transform="scale(0.015625)"/>
      </defs>
      <use xlink:href="#DejaVuSans-41"/>
      <use x="66.658203" xlink:href="#DejaVuSans-63"/>
      <use x="121.638672" xlink:href="#DejaVuSans-63"/>
      <use x="176.619141" xlink:href="#DejaVuSans-75"/>
      <use x="239.998047" xlink:href="#DejaVuSans-72"/>
      <use x="281.111328" xlink:href="#DejaVuSans-61"/>
      <use x="342.390625" xlink:href="#DejaVuSans-63"/>
      <use x="397.371094" xlink:href="#DejaVuSans-79"/>
     </g>
    </g>
   </g>
   <g id="line2d_10">
    <path clip-path="url(#p344379813c)" d="M 115.363636 121.552125 
L 119.626432 339.500726 
L 123.889228 102.654516 
L 128.152024 317.250422 
L 132.41482 194.516603 
L 136.677617 176.556651 
L 140.940413 104.495833 
L 145.203209 245.47655 
L 149.466005 334.097026 
L 153.728801 143.347521 
L 157.991597 147.122757 
L 162.254393 199.931319 
L 166.517189 175.583361 
L 170.779985 249.414417 
L 175.042781 230.099555 
L 179.305577 244.505642 
L 183.568373 223.23292 
L 187.831169 103.209283 
L 192.093965 144.503652 
L 196.356761 200.596866 
L 200.619557 311.625314 
L 204.882353 271.716873 
L 209.145149 290.78555 
L 213.407945 237.307055 
L 217.670741 225.782783 
L 221.933537 184.565575 
L 226.196333 344.987639 
L 230.459129 96.815387 
L 234.721925 341.347826 
L 238.984721 301.483805 
L 243.247517 278.181567 
L 247.510313 172.96584 
L 251.773109 213.042052 
L 256.035905 295.616278 
L 260.298701 352.245476 
L 264.561497 90.352561 
L 268.824293 231.239957 
L 273.087089 131.541548 
L 277.349885 259.108058 
L 281.612681 69.702258 
L 285.875477 75.343905 
L 290.138273 110.599029 
L 294.40107 273.139409 
L 298.663866 304.234244 
L 302.926662 300.378351 
L 307.189458 195.131046 
L 311.452254 351.08813 
L 315.71505 337.841921 
L 319.977846 180.268882 
L 324.240642 145.847079 
L 328.503438 159.30383 
L 332.766234 186.298563 
L 337.02903 283.023157 
L 341.291826 226.448977 
L 345.554622 313.153156 
L 349.817418 275.441417 
L 354.080214 305.950027 
L 358.34301 84.082072 
L 362.605806 333.152695 
L 366.868602 360.473288 
L 371.131398 337.400836 
L 375.394194 93.117037 
L 379.65699 344.550619 
L 383.919786 264.007379 
L 388.182582 345.45398 
L 392.445378 359.476203 
L 396.708174 170.385558 
L 400.97097 331.675404 
L 405.233766 149.490751 
L 409.496562 127.116703 
L 413.759358 270.438933 
L 418.022154 99.698599 
L 422.28495 286.041846 
L 426.547746 349.788489 
L 430.810542 113.739046 
L 435.073338 253.670128 
L 439.336134 348.552895 
L 443.59893 201.315755 
L 447.861727 290.740028 
L 452.124523 124.957733 
L 456.387319 132.560741 
L 460.650115 334.387141 
L 464.912911 125.542847 
L 469.175707 335.939182 
L 473.438503 80.390057 
L 477.701299 337.812686 
L 481.964095 229.977047 
L 486.226891 175.108534 
L 490.489687 220.950188 
L 494.752483 100.007729 
L 499.015279 224.773351 
L 503.278075 109.173186 
L 507.540871 331.169962 
L 511.803667 181.359607 
L 516.066463 117.557712 
L 520.329259 77.000028 
L 524.592055 66.96 
L 528.854851 355.98912 
L 533.117647 137.764921 
L 537.380443 195.456397 
L 541.643239 223.602771 
L 545.906035 189.461589 
L 550.168831 351.111766 
L 554.431627 246.549179 
L 558.694423 70.070794 
L 562.957219 247.945462 
L 567.220015 309.610906 
L 571.482811 246.522919 
L 575.745607 288.186905 
L 580.008403 146.074703 
L 584.271199 201.461794 
L 588.533995 358.526954 
L 592.796791 292.666444 
L 597.059587 220.886661 
L 601.322383 169.314525 
L 605.58518 199.193026 
L 609.847976 188.189928 
L 614.110772 249.512922 
L 618.373568 369.36 
L 622.636364 110.541637 
" style="fill:none;stroke:#11618a;stroke-linecap:square;stroke-width:2;"/>
   </g>
   <g id="line2d_11">
    <path clip-path="url(#p344379813c)" d="M 115.363636 248.289194 
L 119.626432 248.289194 
L 123.889228 248.289194 
L 128.152024 248.289194 
L 132.41482 248.289194 
L 136.677617 248.289194 
L 140.940413 248.289194 
L 145.203209 248.289194 
L 149.466005 248.289194 
L 153.728801 248.289194 
L 157.991597 248.289194 
L 162.254393 248.289194 
L 166.517189 248.289194 
L 170.779985 248.289194 
L 175.042781 248.289194 
L 179.305577 248.289194 
L 183.568373 248.289194 
L 187.831169 248.289194 
L 192.093965 248.289194 
L 196.356761 248.289194 
L 200.619557 248.289194 
L 204.882353 248.289194 
L 209.145149 248.289194 
L 213.407945 248.289194 
L 217.670741 248.289194 
L 221.933537 248.289194 
L 226.196333 248.289194 
L 230.459129 248.289194 
L 234.721925 248.289194 
L 238.984721 248.289194 
L 243.247517 248.289194 
L 247.510313 248.289194 
L 251.773109 248.289194 
L 256.035905 248.289194 
L 260.298701 248.289194 
L 264.561497 248.289194 
L 268.824293 248.289194 
L 273.087089 248.289194 
L 277.349885 248.289194 
L 281.612681 248.289194 
L 285.875477 248.289194 
L 290.138273 248.289194 
L 294.40107 248.289194 
L 298.663866 248.289194 
L 302.926662 248.289194 
L 307.189458 248.289194 
L 311.452254 248.289194 
L 315.71505 248.289194 
L 319.977846 248.289194 
L 324.240642 248.289194 
L 328.503438 248.289194 
L 332.766234 248.289194 
L 337.02903 248.289194 
L 341.291826 248.289194 
L 345.554622 248.289194 
L 349.817418 248.289194 
L 354.080214 248.289194 
L 358.34301 248.289194 
L 362.605806 248.289194 
L 366.868602 248.289194 
L 371.131398 248.289194 
L 375.394194 248.289194 
L 379.65699 248.289194 
L 383.919786 248.289194 
L 388.182582 248.289194 
L 392.445378 248.289194 
L 396.708174 248.289194 
L 400.97097 248.289194 
L 405.233766 248.289194 
L 409.496562 248.289194 
L 413.759358 248.289194 
L 418.022154 248.289194 
L 422.28495 248.289194 
L 426.547746 248.289194 
L 430.810542 248.289194 
L 435.073338 248.289194 
L 439.336134 248.289194 
L 443.59893 248.289194 
L 447.861727 248.289194 
L 452.124523 248.289194 
L 456.387319 248.289194 
L 460.650115 248.289194 
L 464.912911 248.289194 
L 469.175707 248.289194 
L 473.438503 248.289194 
L 477.701299 248.289194 
L 481.964095 248.289194 
L 486.226891 248.289194 
L 490.489687 248.289194 
L 494.752483 248.289194 
L 499.015279 248.289194 
L 503.278075 248.289194 
L 507.540871 248.289194 
L 511.803667 248.289194 
L 516.066463 248.289194 
L 520.329259 248.289194 
L 524.592055 248.289194 
L 528.854851 248.289194 
L 533.117647 248.289194 
L 537.380443 248.289194 
L 541.643239 248.289194 
L 545.906035 248.289194 
L 550.168831 248.289194 
L 554.431627 248.289194 
L 558.694423 248.289194 
L 562.957219 248.289194 
L 567.220015 248.289194 
L 571.482811 248.289194 
L 575.745607 248.289194 
L 580.008403 248.289194 
L 584.271199 248.289194 
L 588.533995 248.289194 
L 592.796791 248.289194 
L 597.059587 248.289194 
L 601.322383 248.289194 
L 605.58518 248.289194 
L 609.847976 248.289194 
L 614.110772 248.289194 
L 618.373568 248.289194 
L 622.636364 248.289194 
" style="fill:none;stroke:#c49f31;stroke-linecap:square;stroke-width:2;"/>
   </g>
   <g id="patch_3">
    <path d="M 90 384.48 
L 90 51.84 
" style="fill:none;stroke:#000000;stroke-linecap:square;stroke-linejoin:miter;stroke-width:0.8;"/>
   </g>
   <g id="patch_4">
    <path d="M 648 384.48 
L 648 51.84 
" style="fill:none;stroke:#000000;stroke-linecap:square;stroke-linejoin:miter;stroke-width:0.8;"/>
   </g>
   <g id="patch_5">
    <path d="M 90 384.48 
L 648 384.48 
" style="fill:none;stroke:#000000;stroke-linecap:square;stroke-linejoin:miter;stroke-width:0.8;"/>
   </g>
   <g id="patch_6">
    <path d="M 90 51.84 
L 648 51.84 
" style="fill:none;stroke:#000000;stroke-linecap:square;stroke-linejoin:miter;stroke-width:0.8;"/>
   </g>
   <g id="legend_1">
    <g id="patch_7">
     <path d="M 111 163.90875 
L 323.367188 163.90875 
Q 329.367188 163.90875 329.367188 157.90875 
L 329.367188 72.84 
Q 329.367188 66.84 323.367188 66.84 
L 111 66.84 
Q 105 66.84 105 72.84 
L 105 157.90875 
Q 105 163.90875 111 163.90875 
z
" style="fill:#ffffff;opacity:0.8;stroke:#cccccc;stroke-linejoin:miter;"/>
    </g>
    <g id="line2d_12">
     <path d="M 117 91.135312 
L 177 91.135312 
" style="fill:none;stroke:#11618a;stroke-linecap:square;stroke-width:2;"/>
    </g>
    <g id="line2d_13"/>
    <g id="text_12">
     <!-- Fusion -->
     <g transform="translate(201 101.635312)scale(0.3 -0.3)">
      <defs>
       <path d="M 628 4666 
L 3309 4666 
L 3309 4134 
L 1259 4134 
L 1259 2759 
L 3109 2759 
L 3109 2228 
L 1259 2228 
L 1259 0 
L 628 0 
L 628 4666 
z
" id="DejaVuSans-46" transform="scale(0.015625)"/>
       <path d="M 2834 3397 
L 2834 2853 
Q 2591 2978 2328 3040 
Q 2066 3103 1784 3103 
Q 1356 3103 1142 2972 
Q 928 2841 928 2578 
Q 928 2378 1081 2264 
Q 1234 2150 1697 2047 
L 1894 2003 
Q 2506 1872 2764 1633 
Q 3022 1394 3022 966 
Q 3022 478 2636 193 
Q 2250 -91 1575 -91 
Q 1294 -91 989 -36 
Q 684 19 347 128 
L 347 722 
Q 666 556 975 473 
Q 1284 391 1588 391 
Q 1994 391 2212 530 
Q 2431 669 2431 922 
Q 2431 1156 2273 1281 
Q 2116 1406 1581 1522 
L 1381 1569 
Q 847 1681 609 1914 
Q 372 2147 372 2553 
Q 372 3047 722 3315 
Q 1072 3584 1716 3584 
Q 2034 3584 2315 3537 
Q 2597 3491 2834 3397 
z
" id="DejaVuSans-73" transform="scale(0.015625)"/>
       <path d="M 603 3500 
L 1178 3500 
L 1178 0 
L 603 0 
L 603 3500 
z
M 603 4863 
L 1178 4863 
L 1178 4134 
L 603 4134 
L 603 4863 
z
" id="DejaVuSans-69" transform="scale(0.015625)"/>
       <path d="M 3513 2113 
L 3513 0 
L 2938 0 
L 2938 2094 
Q 2938 2591 2744 2837 
Q 2550 3084 2163 3084 
Q 1697 3084 1428 2787 
Q 1159 2491 1159 1978 
L 1159 0 
L 581 0 
L 581 3500 
L 1159 3500 
L 1159 2956 
Q 1366 3272 1645 3428 
Q 1925 3584 2291 3584 
Q 2894 3584 3203 3211 
Q 3513 2838 3513 2113 
z
" id="DejaVuSans-6e" transform="scale(0.015625)"/>
      </defs>
      <use xlink:href="#DejaVuSans-46"/>
      <use x="52.019531" xlink:href="#DejaVuSans-75"/>
      <use x="115.398438" xlink:href="#DejaVuSans-73"/>
      <use x="167.498047" xlink:href="#DejaVuSans-69"/>
      <use x="195.28125" xlink:href="#DejaVuSans-6f"/>
      <use x="256.462891" xlink:href="#DejaVuSans-6e"/>
     </g>
    </g>
    <g id="line2d_14">
     <path d="M 117 135.169687 
L 177 135.169687 
" style="fill:none;stroke:#c49f31;stroke-linecap:square;stroke-width:2;"/>
    </g>
    <g id="line2d_15"/>
    <g id="text_13">
     <!-- Teacher -->
     <g transform="translate(201 145.669687)scale(0.3 -0.3)">
      <defs>
       <path d="M -19 4666 
L 3928 4666 
L 3928 4134 
L 2272 4134 
L 2272 0 
L 1638 0 
L 1638 4134 
L -19 4134 
L -19 4666 
z
" id="DejaVuSans-54" transform="scale(0.015625)"/>
       <path d="M 3597 1894 
L 3597 1613 
L 953 1613 
Q 991 1019 1311 708 
Q 1631 397 2203 397 
Q 2534 397 2845 478 
Q 3156 559 3463 722 
L 3463 178 
Q 3153 47 2828 -22 
Q 2503 -91 2169 -91 
Q 1331 -91 842 396 
Q 353 884 353 1716 
Q 353 2575 817 3079 
Q 1281 3584 2069 3584 
Q 2775 3584 3186 3129 
Q 3597 2675 3597 1894 
z
M 3022 2063 
Q 3016 2534 2758 2815 
Q 2500 3097 2075 3097 
Q 1594 3097 1305 2825 
Q 1016 2553 972 2059 
L 3022 2063 
z
" id="DejaVuSans-65" transform="scale(0.015625)"/>
      </defs>
      <use xlink:href="#DejaVuSans-54"/>
      <use x="44.083984" xlink:href="#DejaVuSans-65"/>
      <use x="105.607422" xlink:href="#DejaVuSans-61"/>
      <use x="166.886719" xlink:href="#DejaVuSans-63"/>
      <use x="221.867188" xlink:href="#DejaVuSans-68"/>
      <use x="285.246094" xlink:href="#DejaVuSans-65"/>
      <use x="346.769531" xlink:href="#DejaVuSans-72"/>
     </g>
    </g>
   </g>
  </g>
 </g>
 <defs>
  <clipPath id="p344379813c">
   <rect height="332.64" width="558" x="90" y="51.84"/>
  </clipPath>
 </defs>
</svg>
